<?xml version="1.0" encoding="UTF-8" standalone="no"?>
<!DOCTYPE svg PUBLIC "-//W3C//DTD SVG 1.1//EN" "http://www.w3.org/Graphics/SVG/1.1/DTD/svg11.dtd">
<svg width="100%" height="100%" viewBox="0 0 417 383" version="1.1" xmlns="http://www.w3.org/2000/svg" xmlns:xlink="http://www.w3.org/1999/xlink" xml:space="preserve" xmlns:serif="http://www.serif.com/" style="fill-rule:evenodd;clip-rule:evenodd;stroke-linecap:round;stroke-linejoin:round;stroke-miterlimit:1.5;">
    <g transform="matrix(1,0,0,1,-93.505,-166)">
        <g transform="matrix(0.935321,0,0,1.0728,-676.264,-247.03)">
            <path d="M1031.02,386.313C1015.07,384.562 998.926,384.562 982.983,386.313L978.946,419.383C972.49,420.442 966.128,421.864 959.903,423.64L936.586,396.684C921.73,401.818 907.745,408.554 894.988,416.72L911.312,447.044C906.356,450.653 901.698,454.539 897.372,458.674L861.023,445.055C851.234,455.698 843.16,467.365 837.006,479.758L869.318,499.21C867.188,504.403 865.484,509.711 864.215,515.096L824.574,518.464C822.475,531.764 822.475,545.236 824.574,558.536L864.215,561.904C865.484,567.289 867.188,572.597 869.318,577.79L837.006,597.242C843.16,609.635 851.234,621.302 861.023,631.945L897.372,618.326C901.698,622.461 906.356,626.347 911.312,629.956L894.988,660.28C907.745,668.446 921.73,675.182 936.586,680.316L959.903,653.36C966.128,655.136 972.49,656.558 978.946,657.617L982.983,690.687C998.926,692.438 1015.07,692.438 1031.02,690.687L1035.05,657.617C1041.51,656.558 1047.87,655.136 1054.1,653.36L1077.41,680.316C1092.27,675.182 1106.26,668.446 1119.01,660.28L1102.69,629.956C1107.64,626.347 1112.3,622.461 1116.63,618.326L1152.98,631.945C1162.77,621.302 1170.84,609.635 1176.99,597.242L1144.68,577.79C1146.81,572.597 1148.52,567.289 1149.79,561.904L1189.43,558.536C1191.53,545.236 1191.53,531.764 1189.43,518.464L1149.79,515.096C1148.52,509.711 1146.81,504.403 1144.68,499.21L1176.99,479.758C1170.84,467.365 1162.77,455.698 1152.98,445.055L1116.63,458.674C1112.3,454.539 1107.64,450.653 1102.69,447.044L1119.01,416.72C1106.26,408.554 1092.27,401.818 1077.41,396.684L1054.1,423.64C1047.87,421.864 1041.51,420.442 1035.05,419.383L1031.02,386.313ZM1007,456.377C1061.33,456.377 1105.44,493.175 1105.44,538.5C1105.44,583.825 1061.33,620.623 1007,620.623C952.669,620.623 908.56,583.825 908.56,538.5C908.56,493.175 952.669,456.377 1007,456.377Z" style="fill:rgb(103,103,103);"/>
        </g>
        <g transform="matrix(0.560662,0,0,0.560662,-109.243,149.543)">
            <g transform="matrix(1.63363,0,0,1.63363,3.99912,-142.955)">
                <path d="M499.5,249.6C534.553,183 604.658,183 639.711,216.3C674.765,249.6 674.765,316.2 639.711,382.8C615.174,432.75 552.079,482.7 499.5,516C446.921,482.7 383.826,432.75 359.289,382.8C324.237,316.2 324.237,249.6 359.289,216.3C394.342,183 464.447,183 499.5,249.6Z" style="fill:white;stroke:rgb(87,87,87);stroke-width:14.64px;"/>
            </g>
            <g transform="matrix(0.726735,0,0,0.726735,94.4085,47.5623)">
                <path d="M759,557L842,557L865,475L903.998,619L943.998,305L988.632,767.665C988.632,767.665 1046.34,466.427 1046,466C1045.66,465.573 1107,548 1107,548L1227.21,548" style="fill:none;stroke:rgb(255,196,0);stroke-width:29.45px;stroke-linecap:butt;"/>
            </g>
            <g transform="matrix(1.11445,0,0,1.20732,-223.608,-225.784)">
                <ellipse cx="1095.5" cy="557.5" rx="19.5" ry="17.5" style="fill:rgb(87,87,87);"/>
            </g>
        </g>
    </g>
</svg>
